<svg width="334" height="119" viewBox="0 0 334 119" fill="none" xmlns="http://www.w3.org/2000/svg">
<g filter="url(#filter0_d_112_2364)">
<path d="M298.56 100.88H33.4542C28.1452 100.88 23.0535 98.7715 19.2995 95.0174C15.5454 91.2634 13.4369 86.1717 13.4369 80.8627V50.4288C13.4369 39.8324 17.646 29.6697 25.1388 22.1769C32.6316 14.6841 42.7943 10.4747 53.3907 10.4747H278.624C289.22 10.4747 299.382 14.6841 306.875 22.1769C314.368 29.6697 318.578 39.8324 318.578 50.4288V80.8627C318.578 83.4914 318.06 86.0946 317.054 88.5233C316.048 90.9519 314.573 93.1586 312.714 95.0174C310.856 96.8763 308.649 98.3505 306.221 99.3565C303.792 100.362 301.188 100.88 298.56 100.88Z" fill="white"/>
<path d="M299.565 104.139C298.302 104.139 298.75 104.696 298.56 104.805C300.733 104.574 299.497 103.99 299.565 104.139Z" fill="white"/>
<path d="M316.391 93.7777V94.1852C316.827 93.3061 317.203 92.3987 317.518 91.4691C317.189 92.2604 316.813 93.0313 316.391 93.7777Z" fill="white"/>
<path d="M320.601 76.5441C320.138 77.8504 320.026 79.2551 320.275 80.6183C320.323 81.5593 320.323 82.5018 320.275 83.4428C320.226 84.3406 320.052 85.2275 319.759 86.0777L319.406 86.5528C319.55 87.0967 319.655 87.6504 319.718 88.2096C320.353 86.1155 320.647 83.9327 320.588 81.7452C320.588 80.6181 320.506 79.7627 320.506 78.8663C320.506 77.97 320.533 77.196 320.601 76.5441Z" fill="white"/>
<path d="M322.692 67.6215C322.312 68.1648 322.366 65.666 322.583 69.713C322.605 69.584 322.637 69.4568 322.679 69.3327C322.665 68.9796 322.665 68.4092 322.692 67.6215Z" fill="white"/>
<path d="M322.679 69.2785C322.679 71.0575 322.991 68.1105 322.679 69.2785V69.2785Z" fill="white"/>
<path d="M322.462 61.0758L322.788 63.4116C323.019 62.9227 323.073 60.8451 323.222 61.6192C323.046 59.229 322.828 59.7177 322.462 61.0758Z" fill="white"/>
<path d="M321.755 58.8623L321.891 60.0708C321.986 59.8671 322.013 59.5413 321.755 58.8623Z" fill="white"/>
<path d="M322.177 62.6377L321.878 60.0708C321.728 60.4103 321.402 60.4512 321.986 61.2525C321.715 61.0488 321.986 61.5513 322.177 62.6377Z" fill="white"/>
<path d="M322.04 64.1042C321.837 65.4622 321.701 67.1055 321.361 64.756C321.497 69.224 322.176 68.5722 322.04 64.1042Z" fill="white"/>
<path d="M319.596 75.6883L319.311 77.4403L319.637 78.9615C319.46 78.2009 319.895 75.5797 319.596 75.6883Z" fill="white"/>
<path d="M322.747 46.0962C322.529 45.9604 322.244 47.0062 321.986 47.2235L322.312 49.0842C322.407 48.12 322.448 46.2592 322.747 46.0962Z" fill="white"/>
<path d="M321.986 47.2508C321.891 46.7891 321.837 46.3138 321.715 45.8928L321.334 44.5347C321.416 45.1594 321.497 45.6485 321.565 46.0287C321.633 46.409 321.647 46.7076 321.688 46.9113C321.728 47.115 321.877 47.2508 321.986 47.2508Z" fill="white"/>
<path d="M320.669 58.4548L321.416 62.6919L320.669 57.6264V58.4548Z" fill="white"/>
<path d="M320.343 35.4358L321.348 36.821L319.677 34.3358L320.343 35.4358Z" fill="white"/>
<path d="M317.274 28.8628C318.252 29.7048 317.002 27.0972 317.872 28.0886C316.927 26.5892 315.759 25.2429 314.408 24.096C315.667 25.4814 316.641 27.1012 317.274 28.8628Z" fill="white"/>
<path d="M312.534 22.3441C313.105 22.9144 313.715 23.4713 314.408 24.096C313.837 23.4571 313.21 22.8707 312.534 22.3441Z" fill="white"/>
<path d="M320.519 39.7816C320.733 39.0269 320.733 38.2277 320.519 37.473L320.248 38.7087L320.519 39.7816Z" fill="white"/>
<path d="M320.248 38.763C320.07 37.989 319.843 37.227 319.569 36.4816C319.846 37.2261 320.073 37.9882 320.248 38.763Z" fill="white"/>
<path d="M320.588 40.0531L320.52 39.7816C320.492 39.9038 320.493 39.9716 320.588 40.0531Z" fill="white"/>
<path d="M321.198 51.6782C321.13 51.2843 321.035 50.809 320.94 50.3201C320.853 49.8938 320.745 49.4724 320.615 49.0572C320.398 48.4325 320.18 48.4189 320.017 50.0078C320.452 51.1485 320.696 49.383 321.198 51.6782Z" fill="white"/>
<path d="M320.221 41.5335C320.384 42.4841 320.452 43.4618 320.56 44.426C320.71 44.3581 320.846 43.8014 321.131 44.5755C320.818 43.5434 320.574 42.5249 320.221 41.5335Z" fill="white"/>
<path d="M319.691 40.1889L320.221 41.5334L320.003 40.4741L319.691 40.1889Z" fill="white"/>
<path d="M315.114 26.8801C314.259 25.9023 313.322 24.8567 312.398 23.5937C313.308 25.0332 314.368 26.4183 315.183 27.8714C315.386 27.9122 316.092 28.3739 315.114 26.8801Z" fill="white"/>
<path d="M318.021 32.4618L317.858 32.2171C317.898 32.3936 317.939 32.5297 318.021 32.4618Z" fill="white"/>
<path d="M300.692 13.2996L300.855 13.5303H300.95L300.692 13.2996Z" fill="white"/>
<path d="M315.21 28.1157C315.629 28.9409 316.154 29.7081 316.771 30.3974C316.31 29.5554 315.699 28.7404 315.155 27.8169C315.02 27.7626 314.965 27.7762 315.21 28.1157Z" fill="white"/>
<path d="M309.343 19.2748C309.75 19.8181 310.158 20.4837 310.633 21.1219C310.321 20.5244 309.641 19.302 309.343 19.2748Z" fill="white"/>
<path d="M317.817 31.7556L317.926 31.9184C317.858 31.4838 317.831 31.5655 317.817 31.7556Z" fill="white"/>
<path d="M317.817 31.7556C317.504 31.2764 317.155 30.8224 316.771 30.3975C317.152 31.063 317.518 31.6875 317.858 32.2171C317.832 32.0645 317.818 31.9103 317.817 31.7556Z" fill="white"/>
<path d="M295.015 14.5488C295.219 14.3451 296.075 14.4809 297.161 14.8612C298.387 15.3538 299.503 16.083 300.447 17.007C301.683 17.523 302.145 17.292 302.185 16.5315C302.082 15.4389 301.635 14.4072 300.909 13.5847C300.8 13.6526 300.732 13.7477 300.339 13.6526C299.945 13.5576 299.32 13.2318 297.935 12.7836C298.342 13.096 299.619 14.0599 300.488 14.834C301.357 15.6081 301.846 16.1923 300.719 15.7441C299.243 15.0655 297.889 14.1478 296.713 13.028C297.256 13.6663 296.075 13.3675 294.839 13.028C293.603 12.6885 292.191 12.6884 292.408 13.2723C293.438 13.4919 294.45 13.7868 295.436 14.1549C295.368 14.3179 294.241 14.0464 295.015 14.5488Z" fill="white"/>
<path d="M305.391 16.79C305.736 16.9975 306.063 17.2337 306.368 17.4962C305.345 16.5064 304.38 15.4589 303.476 14.359C301.643 13.4491 301.154 13.4626 300.95 13.5305C302.634 14.5639 304.245 15.7119 305.771 16.9664L305.391 16.79Z" fill="white"/>
<path d="M310.253 21.2307C309.601 20.9424 308.965 20.6159 308.351 20.2529C307.754 19.9949 307.401 19.9812 307.808 20.7824C310.185 23.2405 309.804 22.1405 311.38 23.5801C307.523 19.5059 312.738 24.5577 310.239 21.3119C311.012 21.9918 311.725 22.7371 312.371 23.5393C311.828 22.643 311.163 21.9096 310.633 21.1219L310.701 21.2443C310.809 21.4751 310.836 21.5564 310.701 21.3255C310.701 21.3255 310.633 21.3258 310.606 21.2443C310.495 21.2749 310.377 21.2749 310.266 21.2443C309.248 19.8862 310.198 20.9455 310.606 21.2443C310.606 21.2443 310.687 21.2443 310.715 21.2443C309.357 19.8978 307.91 18.6454 306.382 17.496C306.803 17.9306 307.292 18.3921 307.93 18.9761L309.017 19.9403L310.253 21.2307Z" fill="white"/>
<path d="M318.605 47.2508C318.605 47.0879 318.7 47.088 318.741 47.0744C318.646 46.6942 318.591 46.5718 318.605 47.2508Z" fill="white"/>
<path d="M318.727 44.9966C319.061 45.5879 319.225 46.2598 319.202 46.9385C319.094 48.0657 318.931 46.9386 318.741 47.0337C318.931 47.767 319.297 49.7497 319.46 47.2509L319.352 46.8841C319.271 45.2861 319.395 43.6843 319.718 42.1174C319.21 43.0062 318.874 43.9831 318.727 44.9966Z" fill="white"/>
<path d="M316.201 32.5567L315.074 30.5604L313.716 28.6864L314.476 30.9135L314.68 30.6691C315.766 33.0321 315.848 32.3801 316.201 32.5567Z" fill="white"/>
<path d="M300.366 12.8241L301.235 12.6205C300.298 12.3615 299.346 12.162 298.383 12.0231C299.061 12.2454 299.724 12.5129 300.366 12.8241Z" fill="white"/>
<path d="M294.744 10.1624L295.165 9.74137L293.494 9.48334L294.744 10.1624Z" fill="white"/>
<path d="M16.6145 70.5549L16.7637 71.913C16.743 71.4576 16.6933 71.004 16.6145 70.5549Z" fill="white"/>
<path d="M16.7093 61.1709L16.4381 60.9401C16.6147 61.3747 16.6957 61.5511 16.7093 61.1709Z" fill="white"/>
<path d="M153.126 7.09311C151.238 6.59063 149.133 5.81654 149.364 6.41408L149.935 7.01188C150.998 6.91631 152.069 6.9434 153.126 7.09311Z" fill="white"/>
<path d="M56.7587 10.5834L57.3157 10.7598L58.5782 10.2031L56.7587 10.5834Z" fill="white"/>
<path d="M55.4278 13.0552C54.6129 12.933 53.7437 12.77 52.9696 12.6885C53.4721 12.7835 54.3142 12.9465 55.4278 13.0552Z" fill="white"/>
<path d="M42.9334 97.0234L44.4546 96.4259C42.0916 96.4259 43.1235 96.7246 42.9334 97.0234Z" fill="white"/>
<path d="M235.152 7.25624C233.802 7.05744 232.442 6.93952 231.078 6.90314C233.061 7.22907 234.636 7.74514 235.152 7.25624Z" fill="white"/>
<path d="M10.4084 66.8611C10.5171 67.6487 10.6393 67.9883 10.7751 67.9748C10.6665 67.1599 10.5578 66.6981 10.4084 66.8611Z" fill="white"/>
<path d="M226.393 6.90323L227.249 7.03883C228.526 6.92099 229.809 6.87584 231.092 6.90323C229.544 6.57026 227.942 6.57026 226.393 6.90323Z" fill="white"/>
<path d="M282.793 103.461C282.263 103.461 281.435 103.461 280.579 103.461C281.316 103.518 282.056 103.518 282.793 103.461Z" fill="white"/>
<path d="M276.695 9.10303C276.437 9.17093 276.233 9.25269 276.206 9.3885C276.331 9.23898 276.503 9.13774 276.695 9.10303Z" fill="white"/>
<path d="M214.293 10.5834H214.184C214.537 10.6785 214.483 10.6513 214.293 10.5834Z" fill="white"/>
<path d="M272.607 7.05236C272.095 6.96647 271.578 6.9077 271.059 6.87598L272.607 7.05236Z" fill="white"/>
<path d="M272.363 6.76723H273.422C273.585 6.72648 273.449 6.65858 272.363 6.76723Z" fill="white"/>
<path d="M269.09 6.80801C269.747 6.79551 270.404 6.81825 271.059 6.87598C270.815 6.87598 270.72 6.7944 270.788 6.78082L269.09 6.80801Z" fill="white"/>
<path d="M129.17 99.0876H129.428C130.691 98.8567 130.12 98.9382 129.17 99.0876Z" fill="white"/>
<path d="M117.11 13.6526C118.473 13.0791 119.973 12.9092 121.429 13.1636L119.99 11.466L117.11 13.6526Z" fill="white"/>
<path d="M19.8061 90.3418C19.4822 89.5513 19.214 88.739 19.0044 87.9108C19.7461 88.7602 20.5309 89.5716 21.3545 90.3418C21.8026 90.7492 21.8565 90.6133 21.517 89.5404C20.6478 90.0022 19.2629 88.0466 18.4753 85.833C17.6876 83.6193 17.6057 81.2427 16.655 81.0662L17.0356 79.0835C17.0356 79.6674 17.1307 79.7491 17.0356 80.3331C17.9184 76.3948 15.6772 77.4131 15.976 72.3476C16.1118 70.5821 16.384 69.3462 16.6013 70.5549L16.1391 66.6166C16.1391 65.4759 16.4925 65.761 16.4654 66.9018L16.3155 60.8993C16.0303 60.0437 15.5826 58.1832 15.3925 57.1646C15.6505 55.6436 15.5827 57.9252 15.8135 57.5314L15.3653 54.2174C15.8406 52.8594 16.3158 55.5758 16.2479 57.9116C16.5959 57.4295 16.829 56.8743 16.9302 56.2883C17.0314 55.7024 16.9982 55.1011 16.8321 54.5301C16.6842 53.805 16.5931 53.0692 16.5602 52.3299C16.5602 51.841 16.5602 51.2978 16.5602 50.6595C16.6364 49.9784 16.7547 49.3027 16.9136 48.636C16.9136 49.5867 16.9134 50.5101 17.0628 51.5965C17.5264 50.5898 17.8332 49.5184 17.9726 48.4189C18.0677 47.8485 18.1084 47.2236 18.2578 46.5718C18.4071 45.9199 18.6519 45.2137 18.9235 44.4803C18.7334 44.8063 17.9865 46.2731 17.5655 47.346C17.1445 48.4188 16.6144 49.0164 16.4786 47.346C16.7686 46.0405 16.8876 44.7027 16.8321 43.3666C17.416 43.4617 17.7284 41.7641 18.1901 39.632L18.9912 40.0259C19.236 38.815 19.2912 37.5734 19.1543 36.3456C20.3222 33.969 21.2047 33.8059 21.938 33.5343C23.0516 31.8232 22.4679 32.2851 21.8704 32.6517C21.2728 33.0184 20.6889 33.3442 21.8704 31.1577C24.0025 28.3602 25.2112 26.2419 27.9544 22.9418C29.9915 21.4887 27.9543 23.6207 28.8099 23.2133C29.1726 22.5375 29.5764 21.8845 30.0187 21.2578C30.4669 20.9455 30.453 21.2576 30.453 21.3526C31.8111 19.9946 30.0186 20.5514 32.3137 18.6365C32.3952 18.0526 33.8887 17.4686 35.6949 16.8846C36.665 16.6292 37.6177 16.3117 38.547 15.934C39.5178 15.6647 40.4362 15.2331 41.2631 14.6575C42.1866 14.5896 41.0191 15.3228 41.3858 15.5401C42.2187 15.0933 43.0806 14.7033 43.9659 14.3724L45.5408 13.707C46.4507 13.381 47.2387 13.0822 49.2622 12.2809L52.8337 12.6612C51.4757 12.4032 51.6798 12.0365 52.5625 11.6427C53.8867 11.1703 55.2501 10.8158 56.6367 10.5834C55.6725 10.271 54.8441 9.99937 54.2873 9.86356L59.1625 9.40171C59.76 9.53751 59.2575 9.8364 58.4562 10.2031L59.3528 9.9995C61.1047 10.3119 60.1944 10.8143 58.945 11.3576L57.193 10.8141C55.9844 11.3438 54.8571 11.928 55.1016 12.4441C55.6263 12.3095 56.1633 12.2274 56.7043 12.1994C56.392 12.3488 56.1882 12.471 56.3376 12.5661C56.487 12.6611 57.0167 12.4574 57.8044 12.2402L58.9178 13.2043L59.1897 12.824L65.5721 13.4354C70.1487 12.4576 74.128 11.018 81.38 10.6242C79.5738 11.3303 80.9864 11.7785 80.8913 12.6205C78.9085 11.7377 75.2691 13.0006 71.5209 12.824C73.4765 12.9191 73.0419 13.3132 72.5394 13.449L79.2481 12.6476C79.0987 13.3267 80.6739 13.1638 82.4258 13.449C81.0677 12.091 87.4233 12.5391 90.153 12.091C90.3295 12.5527 89.664 13.0142 86.3368 12.9056C90.0171 13.9377 91.0905 11.3166 94.6893 12.1858C93.8745 12.1858 93.4397 12.1859 93.1138 12.3489C95.0151 11.9415 99.6596 12.2674 98.546 12.6612H97.731C103.163 12.8242 114.15 12.6611 114.965 11.5203C114.74 12.1305 114.388 12.686 113.933 13.1499L123.561 9.25251C122.706 10.2439 125.965 12.6068 121.484 13.1771C123.341 13.4237 125.221 13.4237 127.078 13.1771C126.196 13.0413 124.892 11.7513 126.087 11.6563C128.153 12.3321 130.269 12.8451 132.416 13.1907C131.058 12.9734 132.565 11.4252 134.643 11.466C134.317 11.6968 134.819 13.0006 134.059 13.1635L139.219 11.6427C137.861 11.9143 139.003 12.9329 140.157 13.3674C139.614 13.0687 144.625 13.3673 145.996 13.2451L143.81 12.892C149.636 13.1229 149.568 10.7462 155.353 10.8277C154.661 11.1401 153.629 12.7698 156.576 12.96C159.938 10.7621 163.713 9.27405 167.671 8.58707L168.649 9.03534L172.573 8.5327C168.329 10.3687 163.964 11.9113 159.509 13.1499C161.696 13.503 160.12 13.6797 163.393 13.639C164.547 14.0464 161.614 14.2637 160.677 14.2908L168.295 14.5624C167.956 13.6525 174.108 13.6525 173.822 12.892L165.552 13.829C165.213 12.9191 170.333 11.249 175.724 11.3983C177.082 11.765 174.706 13.0279 174.814 13.3403C176.656 12.9437 178.545 12.8156 180.423 12.96L178.141 13.449C181.143 13.7885 183.044 12.2403 186.656 13.1095C187.892 13.1095 190.364 14.2774 190.581 13.7341C188.558 12.702 188.15 9.46991 189.508 8.69582C189.943 8.76373 196.054 9.68702 197.466 10.2031C199.517 11.0179 194.397 12.145 196.108 12.8512C196.19 12.6068 197.317 12.2944 197.793 12.1994C199.151 12.4031 197.249 12.9734 200.088 12.8512C200.563 11.9277 205.873 12.9329 201.446 12.0774C204.23 11.8058 204.406 12.2673 207.666 12.2266C206.634 11.629 210.599 10.1895 213.383 9.91794C213.22 10.1624 213.844 10.4612 214.157 10.6106C219.847 10.692 222.903 11.1129 228.226 11.1129C228.715 11.3437 231.282 11.6156 230.182 12.0094C231.191 11.7025 232.237 11.5334 233.292 11.5068C236.469 12.308 229.639 11.6426 232.056 12.5933C232.26 12.0636 236.293 11.8599 238.629 11.5203C237.909 10.6919 233.197 11.3576 230.902 11.6971C230.902 10.5563 234.976 9.34748 240.517 8.81784C244.931 8.53265 242.418 9.56467 243.233 9.40171C251.517 9.59183 250.295 7.39196 257.18 8.22037C259.896 8.95372 257.302 9.67344 257.914 10.2031C254.315 10.4747 252.386 9.74125 249.955 9.76841L252.956 10.1079C251.354 10.414 249.718 10.4874 248.095 10.3254C250.39 10.9909 262.11 10.4613 268.466 11.0588C269.606 10.8144 271.562 10.5698 270.638 10.271L268.615 10.3662C266.754 9.78224 272.417 9.5513 269.864 9.27969C273.021 8.59723 276.258 8.36858 279.479 8.60067L280.199 9.46968C279.758 9.22457 279.263 9.09379 278.759 9.08938C278.039 8.97728 277.307 8.97728 276.587 9.08938C277.862 9.00474 279.143 9.13329 280.376 9.46968C281.102 9.61117 281.837 9.69768 282.575 9.72796C283.171 9.82764 283.781 9.7809 284.355 9.59202C283.473 9.2301 282.565 8.93515 281.638 8.70942L282.752 8.58707H283.933C284.735 8.58707 285.577 8.58707 286.446 8.58707C287.333 8.60942 288.215 8.71857 289.081 8.91299C289.973 9.06337 290.848 9.30928 291.688 9.64639C290.33 8.35624 290.887 9.49696 288.592 7.89445C289.542 8.79077 287.234 8.07093 285.129 7.82648C283.024 7.58203 281.055 7.37826 282.739 8.09803C281.577 7.56452 280.332 7.23825 279.058 7.13386C277.681 7.04145 276.317 6.81402 274.984 6.45484C275.093 6.74003 276.138 6.98453 273.287 6.84873C273.089 6.95571 272.879 7.03773 272.662 7.09308H272.472H272.635C272.512 7.09308 272.499 7.09308 272.635 7.09308C273.137 7.15393 273.627 7.29139 274.088 7.50057C272.73 8.13885 268.153 8.11161 266.618 8.43754C264.934 8.31532 267.325 8.12527 266.401 7.84008L264.12 8.32912C263.889 7.718 259.638 7.31058 263.617 6.97107H260.032C257.788 6.60776 255.506 6.52996 253.242 6.73998C251.558 6.61775 248.977 7.4192 250.458 6.94388L244.835 7.32418V7.17465C239.294 7.09316 233.428 8.17951 227.099 7.07949C224.803 7.31482 222.491 7.36947 220.187 7.24261L219.589 6.71279C217.185 6.90292 212.391 6.19673 211.441 6.71279C208.86 5.35474 199.816 6.40056 195.62 6.15611L195.456 6.83513C192.55 6.83513 189.78 6.99819 186.181 7.2698L186.398 7.88086C183.302 8.38334 178.427 7.44626 173.524 7.51416C174.331 7.31564 175.175 7.31564 175.982 7.51416C170.129 6.15611 163.624 8.50554 158.327 7.51416C157.263 7.706 156.173 7.706 155.109 7.51416H155.435H154.891C154.307 7.40551 153.71 7.2833 153.058 7.18824C153.566 7.3328 154.083 7.44169 154.606 7.51416C153.588 7.51416 152.039 7.60913 150.532 7.75852L149.88 7.10668H149.527C148.047 6.86223 148.332 7.41915 149.133 7.90805C148.456 7.99754 147.785 8.12913 147.124 8.30194C145.915 7.24265 143.145 8.65494 141.488 7.52775C140.469 8.08455 133.855 7.94863 133.04 9.10297C133.04 8.95359 132.552 8.88579 133.367 8.87221C131.737 8.66256 130.086 8.68549 128.464 8.94018L127.744 8.09803L124.05 9.22532C121.809 8.70926 120.872 8.42397 123.1 7.77211C117.667 8.76349 118.74 8.15236 114.15 9.13016L114.381 8.58707C112.738 8.58707 110.13 9.33396 109.139 8.88581C105.485 7.86727 91.0224 8.73635 81.6247 7.7993C83.4581 9.37464 77.265 7.0797 76.8848 8.31553C76.3416 7.93527 75.0382 7.71776 76.5592 7.40541C71.7653 7.77208 69.3479 6.80796 66.0343 7.84008C65.4911 7.45982 67.0663 7.29676 66.5774 7.0659C65.9197 7.25424 65.2276 7.29149 64.5536 7.17465C64.0647 6.94378 65.2599 6.86216 66.0204 6.69919C61.1178 6.69919 60.5885 7.90811 60.2626 8.99456C58.449 8.44079 56.4991 8.53678 54.7488 9.2661C53.8932 8.91301 52.4398 8.53258 55.4955 8.41035L53.1189 8.32912C52.0053 8.32912 50.6608 8.3289 49.3842 8.43754C46.8447 8.74989 44.5226 9.21187 44.5362 9.70077C43.547 9.81021 42.5807 10.0711 41.6709 10.4746C38.9836 11.1716 36.3925 12.1979 33.9569 13.5302L35.0027 13.1771C34.0792 14.7525 32.2867 14.8749 29.6792 16.7354V16.5995C28.6122 17.1949 27.5865 17.8618 26.6096 18.5958C26.2176 18.9218 25.8544 19.2808 25.5235 19.6687C25.021 20.2662 24.4231 20.6872 21.7205 23.1046L22.4811 23.2541C22.6305 23.6072 22.4001 24.0281 21.952 24.5306C21.398 25.1912 20.8037 25.8169 20.1728 26.4046C19.8197 26.7576 19.4258 27.1244 19.0455 27.5183C18.6653 27.9121 18.3393 28.3874 17.9998 28.8763C17.2988 29.7276 16.7474 30.6922 16.3699 31.7283C16.6872 31.3289 17.0273 30.9479 17.3884 30.5875C16.7737 31.9284 15.8806 33.123 14.7678 34.0913C13.7062 35.2047 12.7932 36.4509 12.0517 37.7988C11.7801 38.2605 12.1192 36.9702 12.2957 36.2504C11.8006 37.0924 11.4473 38.01 11.25 38.9665C11.1821 39.4147 11.2502 39.4964 11.4675 39.5372C11.6848 39.5779 12.2959 39.537 11.8342 41.7914C11.2095 42.5383 10.8426 40.4334 10.2586 43.5433C10.078 44.2394 9.99128 44.9565 10.0007 45.6756C10.0007 46.6805 10.1364 47.9162 10.2043 49.2063C10.2722 50.4965 10.4354 51.7731 10.4761 53.0089C10.5475 54.1363 10.4743 55.2681 10.2586 56.3769C10.6117 55.5077 10.9651 54.6521 11.2367 56.6348C11.359 59.6769 9.87878 64.8647 11.006 67.608C10.9109 68.0018 10.8156 68.1511 10.7341 68.1647C11.0193 70.487 11.2098 75.7156 11.8209 77.1144C11.1893 78.0421 10.901 79.1613 11.006 80.2787C10.9941 81.1278 11.0438 81.9763 11.1552 82.8181C11.2858 83.735 11.4762 84.6423 11.7254 85.5342C12.7847 89.1331 14.7404 91.8356 13.8713 92.3245C15.245 94.6388 17.0199 96.6898 19.1132 98.3814H18.8148C19.6536 99.1091 20.5636 99.7509 21.5309 100.296C21.9383 100.527 22.3183 100.717 22.6714 100.894L23.69 101.274C24.6953 101.601 25.7431 101.779 26.8 101.804C27.8592 102.265 27.0034 102.211 26.8676 102.306C27.7503 102.578 28.538 102.863 29.2714 103.026C30.0047 103.189 30.6297 103.311 31.268 103.393C32.2828 103.5 33.3041 103.532 34.3236 103.488C36.3633 103.311 38.3902 103.012 40.3938 102.591L40.978 103.257C42.4854 102.863 50.6339 104.316 57.1798 103.528C57.1798 103.61 56.9893 103.732 56.4596 103.827C63.8338 103.039 74.1143 105.701 76.8304 103.243L81.6923 102.646C75.4046 102.456 82.6298 101.573 80.0359 101.165C82.5211 101.03 86.4459 101.913 83.4038 102.035L82.9284 101.912C81.8012 103.189 90.7506 102.374 90.5741 103.27C102.96 103.203 115.019 103.909 126.63 103.963L125.272 102.972H129.346C130.405 103.203 130.773 103.746 127.88 103.705C129.554 103.988 131.274 103.751 132.81 103.026C138.459 103.42 130.596 104.18 132.334 104.207L134.684 104.126L134.154 104.017C135.939 103.409 137.824 103.141 139.709 103.23C141.895 103.42 140.836 103.841 141.691 103.882C141.691 103.949 141.977 103.977 143.049 103.882L148.142 103.963L146.105 103.175C148.359 102.795 150.899 103.175 148.549 102.334C151.999 103.692 167.562 102.822 169.681 103.243C173.042 102.745 176.445 102.581 179.839 102.755C178.888 102.592 178.304 101.709 181.645 101.817C180.423 103.637 187.756 102.605 190.459 103.922C188.041 103.053 199.965 103.705 196.163 102.469C198.947 102.618 196.326 103.148 198.444 103.583C205.072 102.877 213.057 104.044 221.246 103.8C221.382 103.556 219.997 103.202 221.762 102.836L226.081 104.031C227.711 103.922 227.574 102.673 230.535 103.488C230.114 103.284 229.489 102.985 230.535 102.904C246.587 104.072 263.346 101.953 279.642 104.139C277.429 103.678 278.909 103.624 280.593 103.61C279.493 103.501 280.593 103.026 280.403 102.7L287.193 103.596C288.443 102.7 294.513 103.596 295.233 102.673L293.06 102.836C295.939 101.817 288.986 100.582 289.461 99.2779C286.243 100.432 280.973 97.5667 275.704 99.2779C274.536 99.0063 276.695 98.8568 276.07 98.5581C274.15 99.1717 272.11 99.3162 270.122 98.9792L270.462 98.8432C262.042 98.979 258.43 98.4221 248.978 98.0554L249.684 98.7073C248.536 98.6678 247.394 98.5179 246.275 98.2593C243.939 99.2371 251.979 98.2591 249.847 99.3863C247.131 98.0283 235.533 99.3865 233.699 97.8791C230.576 97.8791 234.623 98.626 231.499 98.6125L230.671 98.2186L229.883 98.7345C227.833 98.6394 226.8 98.137 226.719 97.7975C227.368 97.7898 228.016 97.7488 228.661 97.6751C226.013 97.1998 221.178 97.8381 220.255 97.6751L223.269 97.9198C214.741 98.3001 204.325 97.7704 196.108 98.5853L196.733 98.884C190.445 99.4544 191.695 98.5581 184.782 98.884L185.04 98.816C183.354 99.1393 181.637 99.2805 179.92 99.2371C181.659 98.8704 176.634 98.5444 178.929 98.1506C172.139 98.7481 175.547 98.6258 171.039 99.753L170.007 99.2507C168.369 99.8505 166.63 100.127 164.887 100.065C167.712 99.6443 162.687 99.3048 165.851 98.7073C158.613 97.6073 155.108 99.8211 151.781 98.205C148.454 99.563 158.042 98.9791 156.182 99.2779C157.743 99.7396 153.466 100.323 151.171 100.174C148.875 100.025 147.232 98.395 141.419 98.4221C141.99 98.4221 142.03 98.3273 142.614 98.3273C140.442 97.9742 138.35 98.8161 135.675 98.2322C134.181 99.0742 132.212 98.2322 131.777 99.2643L137.115 99.0063C134.086 99.2915 131.248 100.554 126.25 99.9433C127.19 99.626 128.159 99.4031 129.143 99.2779C127.69 98.9655 126.332 99.4951 124.824 99.1691C125.259 98.0827 131.315 98.9246 134.548 98.1098C132.986 97.6617 128.423 98.8839 130.052 97.7295C127.703 99.2098 124.322 97.5396 120.384 98.6668L120.642 98.0283C119.632 98.2486 118.605 98.376 117.572 98.4085L119.65 97.5803C116.459 98.2865 113.498 96.9554 110.442 97.3492C116.852 97.3492 111.882 98.1235 114.585 98.5853C106.694 99.4544 110.048 96.9013 101.194 97.2272C102.402 97.1321 105.69 97.6075 103.829 97.9062C102.164 97.818 100.509 97.5817 98.8855 97.2C93.0187 97.3223 99.7816 97.8519 97.2828 98.2593C95.2864 97.4717 94.4037 98.5716 91.8506 98.8296V98.1642C85.1689 97.7432 90.0715 99.5224 84.0689 99.0199L86.6087 98.1234L83.4715 98.3542L84.1233 97.6075C81.5395 98.054 78.9048 98.1225 76.3012 97.8111C77.0753 98.2728 75.8667 98.9928 72.9061 99.0199C70.8962 98.6261 74.0333 98.3951 69.8505 98.4901C70.4245 98.1679 71.0607 97.9721 71.7165 97.9159C72.3723 97.8596 73.0323 97.9443 73.6528 98.1642C73.8429 97.9605 74.5899 97.7568 74.7801 97.5395C72.4615 97.2872 70.1241 97.2553 67.7995 97.4444C68.3508 97.4532 68.9004 97.5078 69.4427 97.6075L63.3586 98.5037C62.408 98.2593 63.1687 98.0692 63.9156 97.8791C62.6934 97.8791 61.838 98.2458 60.0318 98.3001C60.4935 97.7705 60.3844 97.2137 62.9376 96.9421L57.1526 97.5259C56.7587 97.2951 54.1782 96.9011 54.9252 96.6974C51.7202 96.385 47.0482 97.7298 42.7975 97.3224C42.289 97.4915 41.7584 97.583 41.2226 97.5939C39.2263 97.5939 37.3382 97.3495 35.3554 97.2544L29.7608 97.1185C29.1195 96.6656 28.5236 96.1519 27.9816 95.584C27.2754 95.4075 27.0718 95.3939 27.0718 95.584C27.1423 95.8257 27.2728 96.0453 27.4518 96.2223C27.6283 96.4531 27.7506 96.6703 27.4518 96.7382C27.2326 96.7864 27.0059 96.7864 26.7867 96.7382C26.4608 96.6431 26.0126 96.4803 25.4286 96.2359C24.8659 95.9998 24.3395 95.684 23.8664 95.2986C23.6491 95.0541 23.636 94.8913 23.7039 94.7691C23.7718 94.6468 24.2197 94.389 23.7987 93.9136L23.1058 93.6418L22.3458 93.2346C21.7446 92.9239 21.1837 92.5407 20.6755 92.0937C19.4316 91.0419 18.5678 89.6104 18.2173 88.0196C18.8556 88.6986 19.1814 89.5134 19.8061 90.3418ZM16.5602 47.4408C16.6688 48.2964 16.9948 49.8989 16.5602 50.51C15.8812 49.5594 16.2886 48.826 16.6146 47.4408H16.5602ZM63.5078 11.8735C62.5642 12.0513 61.5921 12.005 60.6697 11.7378C61.6204 11.7018 62.572 11.7699 63.5078 11.9414V11.8735ZM257.465 7.31058H257.37C255.387 7.0933 256.094 7.18836 257.465 7.31058ZM261.54 7.59572C261.947 7.50066 261.92 7.41924 261.743 7.32418C261.005 7.5018 260.241 7.54301 259.488 7.44619C260.15 7.72498 260.885 7.77764 261.58 7.59572H261.54ZM142.112 103.501L141.311 103.325C143.158 103.135 142.655 103.311 142.153 103.501H142.112Z" fill="white"/>
<path d="M55.6044 12.77C55.4367 12.7061 55.3007 12.5795 55.2245 12.4169C54.8849 12.5256 54.8711 12.6478 55.6044 12.77Z" fill="white"/>
<path d="M42.6622 97.1321H42.7975C42.8569 97.1105 42.9057 97.0665 42.9334 97.0098L42.6622 97.1321Z" fill="white"/>
<path d="M197.888 13.15C197.332 13.1069 196.784 12.9928 196.258 12.8105C196.217 12.9735 196.598 13.1093 197.888 13.15Z" fill="white"/>
<path d="M283.811 6.80802C282.848 6.75361 281.882 6.75361 280.919 6.80802C281.789 6.79686 282.655 6.92527 283.485 7.18831C283.444 6.99818 282.915 6.68579 283.811 6.80802Z" fill="white"/>
<path d="M304.046 19.6824C304.372 19.8861 304.644 20.2257 304.983 20.4158L305.106 20.1171C304.673 19.6898 304.173 19.3366 303.625 19.0714C303.354 18.9627 303.408 19.1121 304.046 19.6824Z" fill="white"/>
<path d="M286.079 9.36133C286.079 9.6601 286.609 9.78224 287.274 9.95879C287.94 10.1353 288.836 10.2846 289.787 10.4747C289.672 10.4555 289.558 10.4285 289.447 10.3935C289.828 10.0947 289.447 9.87739 288.823 9.70084C287.925 9.47781 287.004 9.36382 286.079 9.36133Z" fill="white"/>
<path d="M290.222 10.5834C290.801 10.696 291.366 10.8735 291.905 11.1129C292.218 10.9092 291.267 10.7192 290.222 10.5834Z" fill="white"/>
<path d="M266.795 7.22906C267.664 7.37845 267.338 6.52274 267.827 6.75361C268.805 6.04743 262.001 7.59574 266.795 7.22906Z" fill="white"/>
<path d="M287.22 11.4256C287.057 11.1539 286.894 10.8686 286.718 10.6106L285.577 10.9909C286.133 11.1005 286.682 11.2458 287.22 11.4256Z" fill="white"/>
<path d="M272.729 9.97242L275.676 10.1624C275.676 10.0538 276.002 9.98596 276.464 9.93164C275.222 9.79848 273.968 9.8122 272.729 9.97242Z" fill="white"/>
<path d="M276.464 9.93158C277.258 9.96032 278.053 9.92388 278.841 9.82283C278.047 9.81691 277.254 9.85328 276.464 9.93158Z" fill="white"/>
<path d="M283.227 10.9637C282.954 10.8617 282.673 10.7845 282.386 10.7329L280.308 10.5698C281.285 10.7056 282.263 10.7464 283.227 10.9637Z" fill="white"/>
<path d="M241.046 9.85004L237.828 10.0403C237.502 10.2712 238.371 10.4206 239.566 10.3255C240.34 10.1625 241.535 10.0673 241.046 9.85004Z" fill="white"/>
<path d="M250.77 11.7107C250.288 11.6272 249.827 11.4519 249.412 11.1945L249.303 12.0366L250.77 11.7107Z" fill="white"/>
<path d="M241.385 11.9415C241.073 12.1859 236.714 12.6204 240.802 12.5661C241.128 12.2945 244.346 12.0909 241.385 11.9415Z" fill="white"/>
<path d="M192.917 10.8415L193.745 10.8279L193.623 9.44269L192.917 10.8415Z" fill="white"/>
<path d="M150.192 14.1417C154.008 14.4812 151.102 13.2996 154.552 13.707C155.448 13.3811 151.727 13.3675 152.651 13.0823C150.355 13.4354 149.147 13.2997 150.192 14.1417Z" fill="white"/>
<path d="M152.651 13.0824L153.832 12.8785C153.434 12.9157 153.039 12.984 152.651 13.0824Z" fill="white"/>
<path d="M291.81 104.207L294.255 104.493L292.679 104.031L291.81 104.207Z" fill="white"/>
<path d="M296.509 103.175L297.093 104.058L298.56 103.257C297.877 103.355 297.182 103.327 296.509 103.175Z" fill="white"/>
<path d="M19.3307 41.6827L19.1676 41.4791C18.8552 41.7372 18.7197 42.2397 18.4209 43.2175L19.3307 41.6827Z" fill="white"/>
<path d="M17.5242 73.6514L17.5514 73.0674L16.7501 74.1403L17.5242 73.6514Z" fill="white"/>
<path d="M25.8358 93.6554C25.0343 93.2373 24.2786 92.7368 23.5812 92.1617C25.0615 93.2482 25.537 94.6196 25.8358 93.6554Z" fill="white"/>
</g>
<defs>
<filter id="filter0_d_112_2364" x="0" y="0" width="333.222" height="118.805" filterUnits="userSpaceOnUse" color-interpolation-filters="sRGB">
<feFlood flood-opacity="0" result="BackgroundImageFix"/>
<feColorMatrix in="SourceAlpha" type="matrix" values="0 0 0 0 0 0 0 0 0 0 0 0 0 0 0 0 0 0 127 0" result="hardAlpha"/>
<feOffset dy="4"/>
<feGaussianBlur stdDeviation="5"/>
<feComposite in2="hardAlpha" operator="out"/>
<feColorMatrix type="matrix" values="0 0 0 0 0 0 0 0 0 0 0 0 0 0 0 0 0 0 0.5 0"/>
<feBlend mode="normal" in2="BackgroundImageFix" result="effect1_dropShadow_112_2364"/>
<feBlend mode="normal" in="SourceGraphic" in2="effect1_dropShadow_112_2364" result="shape"/>
</filter>
</defs>
</svg>
